<svg width="160" height="160" viewBox="0 0 160 160" fill="none" xmlns="http://www.w3.org/2000/svg">
<path d="M78.7333 33.3532H79.1262C80.4686 33.5452 81.4906 34.7058 81.4906 36.0826V124.558C81.4906 126.088 80.2417 127.315 78.7333 127.315C77.2026 127.315 75.976 126.066 75.976 124.558V36.1105C75.976 34.5798 77.2249 33.3532 78.7333 33.3532Z" fill="white" stroke="#2C3832" stroke-miterlimit="10"/>
<path d="M82.2144 124.585C82.2144 126.359 80.89 127.821 79.1759 128.039H78.7333C76.8101 128.039 75.2522 126.481 75.2522 124.558V36.1105C75.2522 34.1873 76.8101 32.6294 78.7333 32.6294C80.6565 32.6294 82.2144 34.1873 82.2144 36.1105V124.585ZM79.2333 33.0895V33.0214H78.7333C77.0373 33.0214 75.672 34.3867 75.672 36.0827V124.558C75.672 126.254 77.0373 127.619 78.7333 127.619C80.4293 127.619 81.7946 126.254 81.7946 124.558V36.1105C81.7946 34.5849 80.6898 33.3268 79.2333 33.0895Z" fill="#070707" stroke="#2C3832" stroke-miterlimit="10"/>
<path d="M125.728 80.348V80.7418C125.536 82.092 124.371 83.1331 122.999 83.1331H34.4958C32.9679 83.1331 31.7386 81.887 31.7386 80.348C31.7386 78.8173 32.9874 77.5907 34.4958 77.5907H122.971C124.501 77.5907 125.728 78.8396 125.728 80.348Z" fill="white" stroke="#2C3832" stroke-miterlimit="10"/>
<path d="M122.971 83.8291H34.4958C32.5726 83.8291 31.0147 82.2712 31.0147 80.348C31.0147 78.4248 32.5726 76.8669 34.4958 76.8669H122.971C124.894 76.8669 126.452 78.4248 126.452 80.348C126.452 82.2712 124.894 83.8291 122.971 83.8291ZM34.4958 77.2867C32.7998 77.2867 31.4345 78.652 31.4345 80.348C31.4345 82.0439 32.7998 83.4092 34.4958 83.4092H122.971C124.667 83.4092 126.032 82.0439 126.032 80.348C126.032 78.652 124.667 77.2867 122.971 77.2867H34.4958Z" fill="#070707" stroke="#2C3832" stroke-miterlimit="10"/>
<path d="M119.575 80.3201C119.575 102.817 101.23 121.162 78.7333 121.162C56.2365 121.162 37.8912 102.817 37.8912 80.3201C37.8912 57.8233 56.2365 39.478 78.7333 39.478C101.23 39.478 119.575 57.8233 119.575 80.3201Z" fill="white" stroke="#2C3832" stroke-miterlimit="10"/>
<path d="M78.7333 121.886C55.8187 121.886 37.1673 103.234 37.1673 80.348C37.1673 57.4612 55.8191 38.782 78.7333 38.782C101.648 38.782 120.299 57.4335 120.299 80.348C120.299 103.262 101.648 121.886 78.7333 121.886ZM78.7333 39.2018C56.0461 39.2018 37.5872 57.6608 37.5872 80.348C37.5872 103.036 56.0466 121.466 78.7333 121.466C101.42 121.466 119.879 103.008 119.879 80.348C119.879 57.6888 101.421 39.2018 78.7333 39.2018Z" fill="#070707" stroke="#2C3832" stroke-miterlimit="10"/>
<path d="M107.261 34.365L107.114 34.2185H107.095C105.954 32.929 106 30.9315 107.233 29.699L129.151 7.78047L155.337 33.9392L133.419 55.8573C132.139 57.1376 130.033 57.1376 128.753 55.8573L107.261 34.365Z" fill="white" stroke="#2C3832" stroke-miterlimit="10"/>
<path d="M129.151 6.77861L156.312 33.939L133.892 56.3584L133.892 56.3583L133.887 56.3642C133.154 57.1212 132.146 57.5204 131.044 57.5204H130.599C129.711 57.4155 128.878 57.0174 128.221 56.3833L106.732 34.8939L106.732 34.8938L106.726 34.8881C105.968 34.1545 105.57 33.1463 105.57 32.0737C105.57 31.0111 105.989 29.9945 106.735 29.2226L128.651 7.27944V7.89649L107.027 29.5208C106.345 30.2029 105.99 31.1112 105.99 32.0459C105.99 33.0013 106.34 33.9147 107.031 34.575L128.519 56.0633C129.884 57.4278 132.233 57.4278 133.597 56.0633L155.368 34.2925L155.722 33.939L155.368 33.5854L129.505 7.7222L128.856 7.07392L129.151 6.77861Z" fill="#070707" stroke="#2C3832" stroke-miterlimit="10"/>
<path d="M157.291 33.9618L157.289 33.9624L154.876 34.7085L128.41 8.24165L129.156 5.82925L129.156 5.82926L129.157 5.82602C129.356 5.16403 129.631 4.85387 129.882 4.71314C130.133 4.57264 130.455 4.54811 130.862 4.65755C131.703 4.88345 132.67 5.61983 133.391 6.34131L156.777 29.7268C157.48 30.4303 158.147 31.4148 158.341 32.2679C158.436 32.6858 158.407 33.0234 158.27 33.2813C158.138 33.5314 157.861 33.7877 157.291 33.9618Z" fill="white" stroke="#2C3832" stroke-miterlimit="10"/>
<path d="M154.676 35.5107L127.629 8.46314L127.766 8.01034L128.297 8.54069L154.577 34.8215L154.789 35.0329L155.075 34.9467L157.386 34.2507L157.386 34.2508L157.395 34.248C157.85 34.1015 158.155 33.8997 158.354 33.6789C158.555 33.4565 158.619 33.2477 158.644 33.1458C158.789 32.6021 158.6 31.9477 158.313 31.3652C158.011 30.7543 157.546 30.1119 156.983 29.5487L133.597 6.13556L133.597 6.13535C133.059 5.5967 132.491 5.14498 131.955 4.8245C131.435 4.51309 130.888 4.29067 130.404 4.29067L130.402 4.29067C130.279 4.29066 129.973 4.29064 129.652 4.51853C129.339 4.74036 129.082 5.12527 128.896 5.72938L128.896 5.72938L128.895 5.73222L128.306 7.68713H127.864L128.488 5.63371C128.488 5.63342 128.488 5.63314 128.488 5.63285C128.738 4.82066 129.107 4.40257 129.442 4.1806C129.782 3.95441 130.137 3.89868 130.404 3.89868C131.054 3.89868 131.762 4.20635 132.416 4.63477C133.061 5.05684 133.596 5.55815 133.885 5.86012L133.885 5.86021L133.892 5.86806L157.278 29.2535C157.804 29.7794 158.338 30.4726 158.692 31.2025C159.049 31.9394 159.194 32.6541 159.04 33.2588L159.04 33.2588L159.038 33.2664C158.936 33.6948 158.611 34.3464 157.498 34.6542L157.498 34.654L157.486 34.6577L154.676 35.5107Z" fill="#070707" stroke="#2C3832" stroke-miterlimit="10"/>
<path d="M31.2469 104.143L52.7392 125.635C54.0195 126.915 54.0195 129.021 52.7392 130.301L30.8209 152.219L4.6626 126.061L26.5809 104.143C27.8612 102.862 29.9666 102.862 31.2469 104.143Z" fill="white" stroke="#2C3832" stroke-miterlimit="10"/>
<path d="M53.2404 130.774L30.8072 153.207L3.66019 126.033L26.0798 103.614C27.5828 102.111 30.2451 102.111 31.748 103.614L53.2404 125.106C54.799 126.665 54.799 129.216 53.2404 130.774ZM4.60418 125.68L4.25062 126.033L4.60418 126.387L30.4674 152.25L30.8209 152.603L31.1745 152.25L52.9452 130.479C54.3376 129.087 54.3376 126.794 52.9452 125.401L31.4529 103.909C30.0884 102.544 27.7395 102.544 26.3749 103.909L4.60418 125.68Z" fill="#070707" stroke="#2C3832" stroke-miterlimit="10"/>
<path d="M25.7552 152.777V152.805L3.2233 130.273C2.51977 129.57 1.85271 128.585 1.65912 127.732C1.56426 127.314 1.59339 126.977 1.72996 126.719C1.8624 126.469 2.13887 126.212 2.70949 126.038L2.70949 126.038L2.71124 126.038L5.12363 125.292L31.5649 151.733L30.8434 154.146C30.6435 154.808 30.3689 155.118 30.1177 155.259C29.8668 155.4 29.5448 155.424 29.1377 155.315C28.2973 155.089 27.3302 154.352 26.6088 153.631L25.7552 152.777Z" fill="white" stroke="#2C3832" stroke-miterlimit="10"/>
<path d="M26.1154 154.168L26.1155 154.168L26.1076 154.16L2.72217 130.774C2.19623 130.248 1.66167 129.555 1.30789 128.828C0.950196 128.093 0.806993 127.387 0.959511 126.799L0.959607 126.799L0.961915 126.789C1.06389 126.361 1.39072 125.705 2.51136 125.371L2.51136 125.371L2.51386 125.37L5.34509 124.511L32.3991 151.565L31.5402 154.394C31.5401 154.394 31.5401 154.394 31.54 154.395C31.2899 155.207 30.9204 155.625 30.5861 155.847C30.2455 156.073 29.891 156.129 29.6238 156.129H29.596C28.9461 156.129 28.2378 155.821 27.5835 155.393C26.939 154.971 26.4042 154.47 26.1154 154.168ZM5.42264 125.179L5.2112 124.967L4.92488 125.053L2.61418 125.749L2.61417 125.749L2.61018 125.751C2.14127 125.896 1.83106 126.098 1.63098 126.326C1.4301 126.555 1.37642 126.771 1.35607 126.853C1.35588 126.853 1.3557 126.854 1.35552 126.855C1.21139 127.398 1.39958 128.052 1.68713 128.635C1.98875 129.246 2.45401 129.888 3.0173 130.451L26.4028 153.837C26.9414 154.375 27.5092 154.827 28.0446 155.148C28.5649 155.459 29.1121 155.681 29.596 155.681H29.5982C29.7214 155.681 30.0267 155.682 30.348 155.454C30.6609 155.232 30.9181 154.847 31.104 154.243L31.1048 154.24L31.8008 151.929L31.887 151.643L31.6756 151.431L5.42264 125.179Z" fill="#070707" stroke="#2C3832" stroke-miterlimit="10"/>
<path d="M104.143 128.753L125.635 107.261C126.915 105.98 129.021 105.98 130.301 107.261L152.219 129.179L126.061 155.337L104.143 133.419C102.862 132.139 102.862 130.033 104.143 128.753Z" fill="white" stroke="#2C3832" stroke-miterlimit="10"/>
<path d="M125.707 155.396L126.061 155.749L126.415 155.396L152.278 129.533L152.631 129.179L152.278 128.825L130.507 107.055C129.825 106.373 128.917 106.017 127.982 106.017H127.954C126.986 106.017 126.079 106.405 125.429 107.055L103.937 128.547C102.544 129.939 102.544 132.233 103.937 133.625L125.707 155.396ZM130.774 106.76L153.194 129.179L126.033 156.34L103.614 133.92C102.055 132.362 102.055 129.811 103.614 128.252L125.106 106.76C126.609 105.257 129.271 105.257 130.774 106.76Z" fill="#070707" stroke="#2C3832" stroke-miterlimit="10"/>
<path d="M126.719 158.27C126.469 158.138 126.213 157.862 126.039 157.292C126.038 157.291 126.038 157.291 126.038 157.291L125.317 154.879L151.758 128.437L154.171 129.183L154.174 129.184C154.836 129.384 155.146 129.659 155.287 129.91C155.427 130.161 155.452 130.483 155.342 130.89C155.161 131.566 154.65 132.323 154.081 132.969L153.659 133.391L130.273 156.777C129.57 157.48 128.585 158.147 127.732 158.341C127.314 158.436 126.977 158.407 126.719 158.27Z" fill="white" stroke="#2C3832" stroke-miterlimit="10"/>
<path d="M154.368 128.488L154.37 128.489C155.582 128.852 155.938 129.518 156.063 129.951C156.233 130.618 155.994 131.388 155.548 132.144C155.109 132.889 154.523 133.53 154.16 133.892L130.774 157.278C130.329 157.723 129.746 158.188 129.119 158.538C128.487 158.892 127.85 159.108 127.286 159.108H127.258C126.982 159.108 126.616 159.056 126.27 158.844C125.935 158.639 125.574 158.257 125.342 157.512C125.342 157.512 125.341 157.511 125.341 157.511L124.483 154.683L151.537 127.629L154.368 128.488ZM125.77 153.986L125.179 154.577L125.151 154.605L125.489 154.944L125.053 155.075L125.749 157.385C125.749 157.385 125.749 157.385 125.749 157.385C125.896 157.874 126.12 158.219 126.42 158.434C126.722 158.651 127.035 158.688 127.258 158.688C127.756 158.688 128.323 158.484 128.856 158.192C129.4 157.893 129.96 157.474 130.451 156.983L153.837 133.597C154.447 132.987 154.938 132.351 155.259 131.764C155.563 131.205 155.77 130.586 155.639 130.06C155.487 129.455 154.889 129.102 154.247 128.897L154.247 128.897L154.24 128.895L151.929 128.199L151.643 128.113L151.431 128.324L125.77 153.986Z" fill="#070707" stroke="#2C3832" stroke-miterlimit="10"/>
<path d="M34.365 52.7393L34.2185 52.8857V52.9049C32.929 54.0456 30.9315 53.9996 29.699 52.7671L7.78065 30.8488L33.9666 4.66283L55.8571 26.5807L55.8573 26.5809C57.1376 27.8612 57.1376 29.9667 55.8573 31.2469L34.365 52.7393Z" fill="white" stroke="#2C3832" stroke-miterlimit="10"/>
<path d="M6.77843 30.8488L33.9668 3.66035L56.3863 26.0798L56.3862 26.0798L56.3921 26.0855C57.1502 26.8192 57.5483 27.8274 57.5483 28.9C57.5483 29.9626 57.1289 30.979 56.3833 31.751L34.8939 53.2404L34.8939 53.2403L34.8882 53.2462C34.1545 54.0043 33.1463 54.4024 32.0737 54.4024H31.8666L31.8438 54.4252C30.855 54.3756 29.9178 53.9635 29.1949 53.2652L6.77843 30.8488ZM7.72223 30.4952L7.36868 30.8488L7.72223 31.2023L29.493 52.9731C30.8575 54.3376 33.2064 54.3376 34.5709 52.9731L56.0633 31.4807C56.7454 30.7986 57.1006 29.8903 57.1006 28.9557C57.1006 28.0306 56.7516 27.0889 56.0596 26.4268L34.3211 4.60484L33.9675 4.24993L33.6133 4.60416L7.72223 30.4952Z" fill="#070707" stroke="#2C3832" stroke-miterlimit="10"/>
<path d="M33.9619 2.70946L33.9624 2.71121L34.7085 5.1236L8.23942 31.5927L5.82607 30.8712C5.82582 30.8711 5.82558 30.8711 5.82534 30.871C5.16385 30.6712 4.85386 30.3966 4.71319 30.1455C4.57268 29.8946 4.54816 29.5726 4.65759 29.1655C4.8835 28.3251 5.61988 27.358 6.34136 26.6366L6.4878 26.4901V26.4623L29.7268 3.22327C30.4303 2.51974 31.4149 1.85268 32.2679 1.65909C32.6859 1.56423 33.0234 1.59336 33.2813 1.72993C33.5314 1.86237 33.7877 2.13884 33.9619 2.70946Z" fill="white" stroke="#2C3832" stroke-miterlimit="10"/>
<path d="M6.13536 26.4027L6.13557 26.4025L29.5487 3.01728C30.0399 2.526 30.5997 2.10716 31.1442 1.80843C31.6769 1.5162 32.2443 1.3118 32.7419 1.3118C32.9653 1.3118 33.278 1.34931 33.5796 1.56553C33.8797 1.78069 34.1042 2.12619 34.2507 2.61415L6.13536 26.4027ZM6.13536 26.4027C5.52542 27.0127 5.03394 27.6488 4.71365 28.236C4.4088 28.7949 4.20185 29.4135 4.33345 29.9399C4.48481 30.5454 5.08348 30.8984 5.72484 31.1025L5.72482 31.1025L5.73224 31.1048L8.04294 31.8008L8.32908 31.887L8.54051 31.6758L34.8213 5.4228L35.033 5.21135L34.9467 4.92486L34.2509 2.61468L6.13536 26.4027ZM35.4893 5.3449L8.43547 32.3713L5.60408 31.5117L5.60251 31.5113C4.39389 31.1487 4.03616 30.4854 3.91015 30.0531C3.75195 29.382 3.99383 28.6097 4.43576 27.8544C4.87177 27.1093 5.45143 26.4686 5.81239 26.1076L29.2255 2.72236L29.2257 2.72215C29.6709 2.27699 30.2542 1.81223 30.8807 1.46165C31.5126 1.10801 32.1501 0.891968 32.714 0.891968C32.9898 0.891968 33.3552 0.94419 33.6998 1.15793C34.0344 1.36539 34.3968 1.75397 34.6299 2.5142C34.63 2.5145 34.6301 2.5148 34.6302 2.5151L35.4893 5.3449Z" fill="#070707" stroke="#2C3832" stroke-miterlimit="10"/>
</svg>
