<svg width="205" height="205" viewBox="0 0 205 205" fill="none" xmlns="http://www.w3.org/2000/svg">
<mask id="mask0_31_195" style="mask-type:alpha" maskUnits="userSpaceOnUse" x="0" y="-11" width="205" height="216">
<rect x="0.5" y="-10.5" width="204" height="215" rx="15.5" fill="#D9D9D9" stroke="#ECEDED"/>
</mask>
<g mask="url(#mask0_31_195)">
<rect x="0.5" y="0.5" width="204" height="203" rx="15.5" stroke="#ECEDED"/>
 <path d="M104.733 56.3532H105.126C106.469 56.5452 107.491 57.7058 107.491 59.0826V147.558C107.491 149.088 106.242 150.315 104.733 150.315C103.203 150.315 101.976 149.066 101.976 147.558V59.1105C101.976 57.5798 103.225 56.3532 104.733 56.3532Z" fill="green" stroke="#2C3832" stroke-miterlimit="10"/>
<path d="M108.214 147.585C108.214 149.359 106.89 150.821 105.176 151.039H104.733C102.81 151.039 101.252 149.481 101.252 147.558V59.1105C101.252 57.1873 102.81 55.6294 104.733 55.6294C106.656 55.6294 108.214 57.1873 108.214 59.1105V147.585ZM105.233 56.0895V56.0214H104.733C103.037 56.0214 101.672 57.3867 101.672 59.0827V147.558C101.672 149.254 103.037 150.619 104.733 150.619C106.429 150.619 107.795 149.254 107.795 147.558V59.1105C107.795 57.5849 106.69 56.3268 105.233 56.0895Z" fill="#070707" stroke="#2C3832" stroke-miterlimit="10"/>
<path d="M151.728 103.348V103.742C151.536 105.092 150.371 106.133 148.999 106.133H60.4958C58.9679 106.133 57.7386 104.887 57.7386 103.348C57.7386 101.817 58.9874 100.591 60.4958 100.591H148.971C150.501 100.591 151.728 101.84 151.728 103.348Z" fill="green" stroke="#2C3832" stroke-miterlimit="10"/>
<path d="M148.971 106.829H60.4958C58.5726 106.829 57.0147 105.271 57.0147 103.348C57.0147 101.425 58.5726 99.8669 60.4958 99.8669H148.971C150.894 99.8669 152.452 101.425 152.452 103.348C152.452 105.271 150.894 106.829 148.971 106.829ZM60.4958 100.287C58.7998 100.287 57.4345 101.652 57.4345 103.348C57.4345 105.044 58.7998 106.409 60.4958 106.409H148.971C150.667 106.409 152.032 105.044 152.032 103.348C152.032 101.652 150.667 100.287 148.971 100.287H60.4958Z" fill="#070707" stroke="#2C3832" stroke-miterlimit="10"/>
<path d="M145.575 103.32C145.575 125.817 127.23 144.162 104.733 144.162C82.2365 144.162 63.8912 125.817 63.8912 103.32C63.8912 80.8233 82.2365 62.478 104.733 62.478C127.23 62.478 145.575 80.8233 145.575 103.32Z" fill="green" stroke="#2C3832" stroke-miterlimit="10"/>
<!-- <path d="M104.733 144.886C81.8187 144.886 63.1673 126.234 63.1673 103.348C63.1673 80.4612 81.8191 61.782 104.733 61.782C127.648 61.782 146.299 80.4335 146.299 103.348C146.299 126.262 127.648 144.886 104.733 144.886ZM104.733 62.2018C82.0461 62.2018 63.5872 80.6608 63.5872 103.348C63.5872 126.036 82.0466 144.466 104.733 144.466C127.42 144.466 145.879 126.008 145.879 103.348C145.879 80.6888 127.421 62.2018 104.733 62.2018Z" fill="#070707" stroke="#2C3832" stroke-miterlimit="10"/>
<path d="M133.261 57.365L133.114 57.2185H133.095C131.954 55.929 132 53.9315 133.233 52.699L155.151 30.7805L181.337 56.9392L159.419 78.8573C158.139 80.1376 156.033 80.1376 154.753 78.8573L133.261 57.365Z" fill="green" stroke="#2C3832" stroke-miterlimit="10"/>
<path d="M155.151 29.7786L182.312 56.939L159.892 79.3584L159.892 79.3583L159.887 79.3642C159.154 80.1212 158.146 80.5204 157.044 80.5204H156.599C155.711 80.4155 154.878 80.0174 154.221 79.3833L132.732 57.8939L132.732 57.8938L132.726 57.8881C131.968 57.1545 131.57 56.1463 131.57 55.0737C131.57 54.0111 131.989 52.9945 132.735 52.2226L154.651 30.2794V30.8965L133.027 52.5208C132.345 53.2029 131.99 54.1112 131.99 55.0459C131.99 56.0013 132.34 56.9147 133.031 57.575L154.519 79.0633C155.884 80.4278 158.233 80.4278 159.597 79.0633L181.368 57.2925L181.722 56.939L181.368 56.5854L155.505 30.7222L154.856 30.0739L155.151 29.7786Z" fill="#070707" stroke="#2C3832" stroke-miterlimit="10"/>
<path d="M183.291 56.9618L183.289 56.9624L180.876 57.7085L154.41 31.2416L155.156 28.8293L155.156 28.8293L155.157 28.826C155.356 28.164 155.631 27.8539 155.882 27.7131C156.133 27.5726 156.455 27.5481 156.862 27.6575C157.703 27.8835 158.67 28.6198 159.391 29.3413L182.777 52.7268C183.48 53.4303 184.147 54.4148 184.341 55.2679C184.436 55.6858 184.407 56.0234 184.27 56.2813C184.138 56.5314 183.861 56.7877 183.291 56.9618Z" fill="green" stroke="#2C3832" stroke-miterlimit="10"/> -->
<!-- <path d="M180.676 58.5107L153.629 31.4631L153.766 31.0103L154.297 31.5407L180.577 57.8215L180.789 58.0329L181.075 57.9467L183.386 57.2507L183.386 57.2508L183.395 57.248C183.85 57.1015 184.155 56.8997 184.354 56.6789C184.555 56.4565 184.619 56.2477 184.644 56.1458C184.789 55.6021 184.6 54.9477 184.313 54.3652C184.011 53.7543 183.546 53.1119 182.983 52.5487L159.597 29.1356L159.597 29.1354C159.059 28.5967 158.491 28.145 157.955 27.8245C157.435 27.5131 156.888 27.2907 156.404 27.2907L156.402 27.2907C156.279 27.2907 155.973 27.2906 155.652 27.5185C155.339 27.7404 155.082 28.1253 154.896 28.7294L154.896 28.7294L154.895 28.7322L154.306 30.6871H153.864L154.488 28.6337C154.488 28.6334 154.488 28.6331 154.488 28.6328C154.738 27.8207 155.107 27.4026 155.442 27.1806C155.782 26.9544 156.137 26.8987 156.404 26.8987C157.054 26.8987 157.762 27.2064 158.416 27.6348C159.061 28.0568 159.596 28.5581 159.885 28.8601L159.885 28.8602L159.892 28.8681L183.278 52.2535C183.804 52.7794 184.338 53.4726 184.692 54.2025C185.049 54.9394 185.194 55.6541 185.04 56.2588L185.04 56.2588L185.038 56.2664C184.936 56.6948 184.611 57.3464 183.498 57.6542L183.498 57.654L183.486 57.6577L180.676 58.5107Z" fill="#070707" stroke="#2C3832" stroke-miterlimit="10"/> -->
<!-- <path d="M57.2469 127.143L78.7392 148.635C80.0195 149.915 80.0195 152.021 78.7392 153.301L56.8209 175.219L30.6626 149.061L52.5809 127.143C53.8612 125.862 55.9666 125.862 57.2469 127.143Z" fill="green" stroke="#2C3832" stroke-miterlimit="10"/>
<path d="M79.2404 153.774L56.8072 176.207L29.6602 149.033L52.0798 126.614C53.5828 125.111 56.2451 125.111 57.748 126.614L79.2404 148.106C80.799 149.665 80.799 152.216 79.2404 153.774ZM30.6042 148.68L30.2506 149.033L30.6042 149.387L56.4674 175.25L56.8209 175.603L57.1745 175.25L78.9452 153.479C80.3376 152.087 80.3376 149.794 78.9452 148.401L57.4529 126.909C56.0884 125.544 53.7395 125.544 52.3749 126.909L30.6042 148.68Z" fill="#070707" stroke="#2C3832" stroke-miterlimit="10"/>
<path d="M51.7552 175.777V175.805L29.2233 153.273C28.5198 152.57 27.8527 151.585 27.6591 150.732C27.5643 150.314 27.5934 149.977 27.73 149.719C27.8624 149.469 28.1389 149.212 28.7095 149.038L28.7095 149.038L28.7112 149.038L31.1236 148.292L57.5649 174.733L56.8434 177.146C56.6435 177.808 56.3689 178.118 56.1177 178.259C55.8668 178.4 55.5448 178.424 55.1377 178.315C54.2973 178.089 53.3302 177.352 52.6088 176.631L51.7552 175.777Z" fill="green" stroke="#2C3832" stroke-miterlimit="10"/>
<path d="M52.1154 177.168L52.1155 177.168L52.1076 177.16L28.7222 153.774C28.1962 153.248 27.6617 152.555 27.3079 151.828C26.9502 151.093 26.807 150.387 26.9595 149.799L26.9596 149.799L26.9619 149.789C27.0639 149.361 27.3907 148.705 28.5114 148.371L28.5114 148.371L28.5139 148.37L31.3451 147.511L58.3991 174.565L57.5402 177.394C57.5401 177.394 57.5401 177.394 57.54 177.395C57.2899 178.207 56.9204 178.625 56.5861 178.847C56.2455 179.073 55.891 179.129 55.6238 179.129H55.596C54.9461 179.129 54.2378 178.821 53.5835 178.393C52.939 177.971 52.4042 177.47 52.1154 177.168ZM31.4226 148.179L31.2112 147.967L30.9249 148.053L28.6142 148.749L28.6142 148.749L28.6102 148.751C28.1413 148.896 27.8311 149.098 27.631 149.326C27.4301 149.555 27.3764 149.771 27.3561 149.853C27.3559 149.853 27.3557 149.854 27.3555 149.855C27.2114 150.398 27.3996 151.052 27.6871 151.635C27.9887 152.246 28.454 152.888 29.0173 153.451L52.4028 176.837C52.9414 177.375 53.5092 177.827 54.0446 178.148C54.5649 178.459 55.1121 178.681 55.596 178.681H55.5982C55.7214 178.681 56.0267 178.682 56.348 178.454C56.6609 178.232 56.9181 177.847 57.104 177.243L57.1048 177.24L57.8008 174.929L57.887 174.643L57.6756 174.431L31.4226 148.179Z" fill="#070707" stroke="#2C3832" stroke-miterlimit="10"/> -->
<path d="M130.143 151.753L151.635 130.261C152.915 128.98 155.021 128.98 156.301 130.261L178.219 152.179L152.061 178.337L130.143 156.419C128.862 155.139 128.862 153.033 130.143 151.753Z" fill="green" stroke="#2C3832" stroke-miterlimit="10"/>
<path d="M151.707 178.396L152.061 178.749L152.415 178.396L178.278 152.533L178.631 152.179L178.278 151.825L156.507 130.055C155.825 129.373 154.917 129.017 153.982 129.017H153.954C152.986 129.017 152.079 129.405 151.429 130.055L129.937 151.547C128.544 152.939 128.544 155.233 129.937 156.625L151.707 178.396ZM156.774 129.76L179.194 152.179L152.033 179.34L129.614 156.92C128.055 155.362 128.055 152.811 129.614 151.252L151.106 129.76C152.609 128.257 155.271 128.257 156.774 129.76Z" fill="#070707" stroke="#2C3832" stroke-miterlimit="10"/>
<path d="M152.719 181.27C152.469 181.138 152.213 180.862 152.039 180.292C152.038 180.291 152.038 180.291 152.038 180.291L151.317 177.879L177.758 151.437L180.171 152.183L180.174 152.184C180.836 152.384 181.146 152.659 181.287 152.91C181.427 153.161 181.452 153.483 181.342 153.89C181.161 154.566 180.65 155.323 180.081 155.969L179.659 156.391L156.273 179.777C155.57 180.48 154.585 181.147 153.732 181.341C153.314 181.436 152.977 181.407 152.719 181.27Z" fill="green" stroke="#2C3832" stroke-miterlimit="10"/>
<path d="M180.368 151.488L180.37 151.489C181.582 151.852 181.938 152.518 182.063 152.951C182.233 153.618 181.994 154.388 181.548 155.144C181.109 155.889 180.523 156.53 180.16 156.892L156.774 180.278C156.329 180.723 155.746 181.188 155.119 181.538C154.487 181.892 153.85 182.108 153.286 182.108H153.258C152.982 182.108 152.616 182.056 152.27 181.844C151.935 181.639 151.574 181.257 151.342 180.512C151.342 180.512 151.341 180.511 151.341 180.511L150.483 177.683L177.537 150.629L180.368 151.488ZM151.77 176.986L151.179 177.577L151.151 177.605L151.489 177.944L151.053 178.075L151.749 180.385C151.749 180.385 151.749 180.385 151.749 180.385C151.896 180.874 152.12 181.219 152.42 181.434C152.722 181.651 153.035 181.688 153.258 181.688C153.756 181.688 154.323 181.484 154.856 181.192C155.4 180.893 155.96 180.474 156.451 179.983L179.837 156.597C180.447 155.987 180.938 155.351 181.259 154.764C181.563 154.205 181.77 153.586 181.639 153.06C181.487 152.455 180.889 152.102 180.247 151.897L180.247 151.897L180.24 151.895L177.929 151.199L177.643 151.113L177.431 151.324L151.77 176.986Z" fill="#070707" stroke="#2C3832" stroke-miterlimit="10"/>
<path d="M60.365 75.7393L60.2185 75.8857V75.9049C58.929 77.0456 56.9315 76.9996 55.699 75.7671L33.7807 53.8488L59.9666 27.6628L81.8571 49.5807L81.8573 49.5809C83.1376 50.8612 83.1376 52.9667 81.8573 54.2469L60.365 75.7393Z" fill="green" stroke="#2C3832" stroke-miterlimit="10"/>
<path d="M32.7784 53.8488L59.9668 26.6604L82.3863 49.0798L82.3862 49.0798L82.3921 49.0855C83.1502 49.8192 83.5483 50.8274 83.5483 51.9C83.5483 52.9626 83.1289 53.979 82.3833 54.751L60.8939 76.2404L60.8939 76.2403L60.8882 76.2462C60.1545 77.0043 59.1463 77.4024 58.0737 77.4024H57.8666L57.8438 77.4252C56.855 77.3756 55.9178 76.9635 55.1949 76.2652L32.7784 53.8488ZM33.7222 53.4952L33.3687 53.8488L33.7222 54.2023L55.493 75.9731C56.8575 77.3376 59.2064 77.3376 60.5709 75.9731L82.0633 54.4807C82.7454 53.7986 83.1006 52.8903 83.1006 51.9557C83.1006 51.0306 82.7516 50.0889 82.0596 49.4268L60.3211 27.6048L59.9675 27.2499L59.6133 27.6042L33.7222 53.4952Z" fill="#070707" stroke="#2C3832" stroke-miterlimit="10"/>
<path d="M59.9619 25.7095L59.9624 25.7112L60.7085 28.1236L34.2394 54.5927L31.8261 53.8712C31.8258 53.8711 31.8256 53.8711 31.8253 53.871C31.1639 53.6712 30.8539 53.3966 30.7132 53.1455C30.5727 52.8946 30.5482 52.5726 30.6576 52.1655C30.8835 51.3251 31.6199 50.358 32.3414 49.6366L32.4878 49.4901V49.4623L55.7268 26.2233C56.4303 25.5197 57.4149 24.8527 58.2679 24.6591C58.6859 24.5642 59.0234 24.5934 59.2813 24.7299C59.5314 24.8624 59.7877 25.1388 59.9619 25.7095Z" fill="green" stroke="#2C3832" stroke-miterlimit="10"/>
<path d="M32.1354 49.4027L32.1356 49.4025L55.5487 26.0173C56.0399 25.526 56.5997 25.1072 57.1442 24.8084C57.6769 24.5162 58.2443 24.3118 58.7419 24.3118C58.9653 24.3118 59.278 24.3493 59.5796 24.5655C59.8797 24.7807 60.1042 25.1262 60.2507 25.6142L32.1354 49.4027ZM32.1354 49.4027C31.5254 50.0127 31.0339 50.6488 30.7137 51.236C30.4088 51.7949 30.2019 52.4135 30.3335 52.9399C30.4848 53.5454 31.0835 53.8984 31.7248 54.1025L31.7248 54.1025L31.7322 54.1048L34.0429 54.8008L34.3291 54.887L34.5405 54.6758L60.8213 28.4228L61.033 28.2113L60.9467 27.9249L60.2509 25.6147L32.1354 49.4027ZM61.4893 28.3449L34.4355 55.3713L31.6041 54.5117L31.6025 54.5113C30.3939 54.1487 30.0362 53.4854 29.9102 53.0531C29.752 52.382 29.9938 51.6097 30.4358 50.8544C30.8718 50.1093 31.4514 49.4686 31.8124 49.1076L55.2255 25.7224L55.2257 25.7221C55.6709 25.277 56.2542 24.8122 56.8807 24.4617C57.5126 24.108 58.1501 23.892 58.714 23.892C58.9898 23.892 59.3552 23.9442 59.6998 24.1579C60.0344 24.3654 60.3968 24.754 60.6299 25.5142C60.63 25.5145 60.6301 25.5148 60.6302 25.5151L61.4893 28.3449Z" fill="#070707" stroke="#2C3832" stroke-miterlimit="10"/>
</g>
</svg>
